# xmcd
#
# Track frame offsets: 
#        150
#        6075
#        27093
#        49895
#        76473
#        98980
#        117218
#        146195
#        169790
#        197208
#        226365
#        244393
#        266610
#        289985
#        313250
#
# Disc length: 4456 seconds
#
# Revision: 0
# Processed by: cddbd v1.5.2PL0 Copyright (c) Steve Scherf et al.
# Submitted via: ExactAudioCopy v1.0b3
#
DISCID=dc11660f
DTITLE=Thanh Thuy - Hat Cho Tinh Yeu
DYEAR=1989
DGENRE=
TTITLE0=Loi gioi thieu
TTITLE1=Hai chuyen tau dem
TTITLE2=Muoi nam chuyen cu
TTITLE3=Tieng hat khoi suong
TTITLE4=Le buon than phan, Bong nho duong chieu
TTITLE5=Nhung giot mua buon
TTITLE6=Tam anh ngay xua, Tim quen
TTITLE7=Xin tra lai cho nguoi, Tinh nhu may khoi
TTITLE8=Tieng hat, Dan trong dem vang
TTITLE9=Phan bac, Nha ca
TTITLE10=Ga chieu
TTITLE11=Buon trong ky niem, Tinh ho
TTITLE12=Hoa thuong nho ai
TTITLE13=Duoc tin em lay chong, Le bong
TTITLE14=Nhung vong tay xuoi
EXTD=
EXTT0=
EXTT1=
EXTT2=
EXTT3=
EXTT4=
EXTT5=
EXTT6=
EXTT7=
EXTT8=
EXTT9=
EXTT10=
EXTT11=
EXTT12=
EXTT13=
EXTT14=
PLAYORDER=
